<?xml version="1.0" encoding="UTF-8" standalone="no"?>
<!DOCTYPE svg PUBLIC "-//W3C//DTD SVG 1.1//EN"
 "http://www.w3.org/Graphics/SVG/1.1/DTD/svg11.dtd">
<!-- Generated by graphviz version 2.44.1 (20200629.0846)
 -->
<!-- Title: dependencies Pages: 1 -->
<svg width="504pt" height="284pt"
 viewBox="0.00 0.00 504.00 284.00" xmlns="http://www.w3.org/2000/svg" xmlns:xlink="http://www.w3.org/1999/xlink">
<g id="graph0" class="graph" transform="scale(1 1) rotate(0) translate(4 280)">
<title>dependencies</title>
<polygon fill="white" stroke="transparent" points="-4,4 -4,-280 500,-280 500,4 -4,4"/>
<text text-anchor="start" x="227.01" y="-42.4" font-family="sans-serif" font-weight="bold" font-size="14.00">Legend</text>
<polygon fill="#ffffb3" stroke="transparent" points="14,-10 14,-30 34,-30 34,-10 14,-10"/>
<text text-anchor="start" x="37.63" y="-15.4" font-family="sans-serif" font-size="14.00"> &#160;Declarations</text>
<polygon fill="#8dd3c7" stroke="transparent" points="127,-10 127,-30 147,-30 147,-10 127,-10"/>
<text text-anchor="start" x="150.73" y="-15.4" font-family="sans-serif" font-size="14.00"> &#160;Module</text>
<polygon fill="#80b1d3" stroke="transparent" points="213,-10 213,-30 233,-30 233,-10 213,-10"/>
<text text-anchor="start" x="236.78" y="-15.4" font-family="sans-serif" font-size="14.00"> &#160;Bootstrap</text>
<polygon fill="#fdb462" stroke="transparent" points="310,-10 310,-30 330,-30 330,-10 310,-10"/>
<text text-anchor="start" x="333.67" y="-15.4" font-family="sans-serif" font-size="14.00"> &#160;Providers</text>
<polygon fill="#fb8072" stroke="transparent" points="406,-10 406,-30 426,-30 426,-10 406,-10"/>
<text text-anchor="start" x="429.73" y="-15.4" font-family="sans-serif" font-size="14.00"> &#160;Exports</text>
<g id="clust1" class="cluster">
<title>cluster_AppModule</title>
<polygon fill="none" stroke="black" stroke-dasharray="1,5" points="75,-70 75,-268 221,-268 221,-70 75,-70"/>
</g>
<g id="clust4" class="cluster">
<title>cluster_AppModule_exports</title>
<polygon fill="none" stroke="black" points="97,-208 97,-260 199,-260 199,-208 97,-208"/>
</g>
<g id="clust6" class="cluster">
<title>cluster_AppModule_providers</title>
<polygon fill="none" stroke="black" points="83,-78 83,-130 213,-130 213,-78 83,-78"/>
</g>
<g id="clust7" class="cluster">
<title>cluster_ConsumerModule</title>
<polygon fill="none" stroke="black" stroke-dasharray="1,5" points="229,-70 229,-195 421,-195 421,-70 229,-70"/>
</g>
<g id="clust12" class="cluster">
<title>cluster_ConsumerModule_providers</title>
<polygon fill="none" stroke="black" points="237,-78 237,-130 413,-130 413,-78 237,-78"/>
</g>
<!-- AppService  -->
<g id="node1" class="node">
<title>AppService </title>
<polygon fill="#fb8072" stroke="black" points="190.59,-252 105.41,-252 105.41,-216 190.59,-216 190.59,-252"/>
<text text-anchor="middle" x="148" y="-229.8" font-family="Times,serif" font-size="14.00">AppService </text>
</g>
<!-- AppModule -->
<g id="node2" class="node">
<title>AppModule</title>
<polygon fill="#8dd3c7" stroke="black" points="189.66,-187 186.66,-191 165.66,-191 162.66,-187 106.34,-187 106.34,-151 189.66,-151 189.66,-187"/>
<text text-anchor="middle" x="148" y="-164.8" font-family="Times,serif" font-size="14.00">AppModule</text>
</g>
<!-- AppModule&#45;&gt;AppService  -->
<g id="edge1" class="edge">
<title>AppModule&#45;&gt;AppService </title>
<path fill="none" stroke="black" stroke-dasharray="5,2" d="M148,-187.11C148,-187.11 148,-205.99 148,-205.99"/>
<polygon fill="black" stroke="black" points="144.5,-205.99 148,-215.99 151.5,-205.99 144.5,-205.99"/>
</g>
<!-- AppService -->
<g id="node3" class="node">
<title>AppService</title>
<ellipse fill="#fdb462" stroke="black" cx="148" cy="-104" rx="56.74" ry="18"/>
<text text-anchor="middle" x="148" y="-99.8" font-family="Times,serif" font-size="14.00">AppService</text>
</g>
<!-- AppService&#45;&gt;AppModule -->
<g id="edge2" class="edge">
<title>AppService&#45;&gt;AppModule</title>
<path fill="none" stroke="black" d="M148,-122.11C148,-122.11 148,-140.99 148,-140.99"/>
<polygon fill="black" stroke="black" points="144.5,-140.99 148,-150.99 151.5,-140.99 144.5,-140.99"/>
</g>
<!-- ConsumerService -->
<g id="node4" class="node">
<title>ConsumerService</title>
<ellipse fill="#fdb462" stroke="black" cx="325" cy="-104" rx="79.87" ry="18"/>
<text text-anchor="middle" x="325" y="-99.8" font-family="Times,serif" font-size="14.00">ConsumerService</text>
</g>
<!-- ConsumerModule -->
<g id="node5" class="node">
<title>ConsumerModule</title>
<polygon fill="#8dd3c7" stroke="black" points="383.6,-187 380.6,-191 359.6,-191 356.6,-187 266.4,-187 266.4,-151 383.6,-151 383.6,-187"/>
<text text-anchor="middle" x="325" y="-164.8" font-family="Times,serif" font-size="14.00">ConsumerModule</text>
</g>
<!-- ConsumerService&#45;&gt;ConsumerModule -->
<g id="edge3" class="edge">
<title>ConsumerService&#45;&gt;ConsumerModule</title>
<path fill="none" stroke="black" d="M325,-122.11C325,-122.11 325,-140.99 325,-140.99"/>
<polygon fill="black" stroke="black" points="321.5,-140.99 325,-150.99 328.5,-140.99 321.5,-140.99"/>
</g>
</g>
</svg>
